<svg width="75.201" height="72.001" viewBox="0 0 75.201 72.001" xmlns="http://www.w3.org/2000/svg"><g id="svgGroup" stroke-linecap="round" fill-rule="evenodd" font-size="9pt" stroke="#ff0000" stroke-width="0" fill="#ff0000" style="stroke:#000;stroke-width:0;fill:#ff0000"><path d="M 0.001 54.801 L 0.001 17.201 A 26.066 26.066 0 0 1 0.447 12.218 Q 1.017 9.293 2.315 7.017 A 13.715 13.715 0 0 1 4.151 4.501 A 13.337 13.337 0 0 1 10.601 0.687 Q 12.761 0.097 15.344 0.014 A 26.677 26.677 0 0 1 16.201 0.001 Q 24.101 0.001 28.251 4.501 A 14.727 14.727 0 0 1 31.519 10.427 Q 32.18 12.673 32.345 15.36 A 29.985 29.985 0 0 1 32.401 17.201 L 32.401 24.601 L 22.001 24.601 L 22.001 16.501 A 11.197 11.197 0 0 0 21.76 14.068 Q 20.994 10.637 17.778 10.1 A 7.76 7.76 0 0 0 16.501 10.001 A 6.607 6.607 0 0 0 14.159 10.382 Q 11.001 11.575 11.001 16.501 L 11.001 55.601 Q 11.001 62.001 16.501 62.001 Q 22.001 62.001 22.001 55.601 L 22.001 44.901 L 32.401 44.901 L 32.401 54.801 A 26.066 26.066 0 0 1 31.954 59.784 Q 31.384 62.708 30.086 64.984 A 13.715 13.715 0 0 1 28.251 67.501 A 13.337 13.337 0 0 1 21.8 71.314 Q 19.64 71.904 17.057 71.987 A 26.677 26.677 0 0 1 16.201 72.001 Q 8.301 72.001 4.151 67.501 A 14.727 14.727 0 0 1 0.882 61.574 Q 0.221 59.329 0.056 56.641 A 29.985 29.985 0 0 1 0.001 54.801 Z" id="0" vector-effect="non-scaling-stroke"/><path d="M 39.001 71.001 L 39.001 1.001 L 50.001 1.001 L 50.001 30.501 L 64.001 1.001 L 75.001 1.001 L 61.901 26.701 L 75.201 71.001 L 63.701 71.001 L 54.401 39.801 L 50.001 48.701 L 50.001 71.001 L 39.001 71.001 Z" id="1" vector-effect="non-scaling-stroke"/></g></svg>